<?xml version="1.0" standalone="no"?>
<!DOCTYPE svg PUBLIC "-//W3C//DTD SVG 20010904//EN"
 "http://www.w3.org/TR/2001/REC-SVG-20010904/DTD/svg10.dtd">
<svg version="1.0" xmlns="http://www.w3.org/2000/svg"
 width="550.000000pt" height="550.000000pt" viewBox="0 0 550.000000 550.000000"
 preserveAspectRatio="xMidYMid meet">
<metadata>
Created by potrace 1.11, written by Peter Selinger 2001-2013
</metadata>
<g transform="translate(0.000000,550.000000) scale(0.100000,-0.100000)"
fill="#000000" stroke="none">
<path d="M1669 4365 c-340 -47 -641 -197 -890 -445 -223 -223 -362 -480 -430
-800 -20 -91 -23 -135 -23 -330 0 -247 13 -337 74 -520 98 -294 308 -585 551
-763 220 -161 479 -264 749 -297 53 -6 434 -10 1017 -10 769 0 952 3 1045 15
350 46 647 193 898 445 305 305 460 685 460 1130 0 445 -155 825 -460 1130
-251 252 -548 399 -898 445 -155 21 -1943 20 -2093 0z m376 -614 c250 -65 465
-241 580 -474 79 -161 89 -215 89 -487 0 -272 -10 -326 -89 -487 -114 -232
-327 -406 -580 -475 -115 -31 -335 -31 -450 0 -253 69 -466 243 -580 475 -79
161 -89 215 -89 487 0 272 10 326 89 487 126 255 353 428 641 488 96 20 285
13 389 -14z"/>
</g>
</svg>
