<?xml version="1.0" standalone="no"?>
<!DOCTYPE svg PUBLIC "-//W3C//DTD SVG 20010904//EN"
 "http://www.w3.org/TR/2001/REC-SVG-20010904/DTD/svg10.dtd">
<svg version="1.0" xmlns="http://www.w3.org/2000/svg"
 width="550.000000pt" height="550.000000pt" viewBox="0 0 550.000000 550.000000"
 preserveAspectRatio="xMidYMid meet">
<metadata>
Created by potrace 1.11, written by Peter Selinger 2001-2013
</metadata>
<g transform="translate(0.000000,550.000000) scale(0.100000,-0.100000)"
fill="#000000" stroke="none">
<path d="M1645 4355 c-241 -39 -472 -133 -669 -272 -108 -77 -286 -257 -365
-368 -114 -163 -207 -376 -254 -583 -19 -85 -21 -127 -21 -342 0 -215 2 -257
21 -342 109 -485 410 -870 848 -1083 328 -160 487 -173 1815 -156 853 10 821
8 1030 78 228 76 428 201 605 378 220 220 359 473 427 782 19 85 22 129 22
333 1 184 -3 256 -17 330 -52 277 -199 564 -397 773 -208 220 -457 364 -780
451 l-115 30 -1035 2 c-811 2 -1052 0 -1115 -11z m400 -604 c250 -65 465 -241
580 -474 79 -161 89 -215 89 -487 0 -272 -10 -326 -89 -487 -114 -232 -327
-406 -580 -475 -115 -31 -335 -31 -450 0 -253 69 -466 243 -580 475 -79 161
-89 215 -89 487 0 272 10 326 89 487 126 255 353 428 641 488 96 20 285 13
389 -14z"/>
</g>
</svg>
